<svg xmlns="http://www.w3.org/2000/svg" width="266" height="80" viewBox="0 0 266 80"><path d="M 28 51.532 L 2 4.740 L 26 4.590 L 39.336 27 L 41.357 32 L 28 51.532 Z" fill="#081B28"/><path d="M 123.9600 52.6860 C 123.9600 67.0841 111.8627 78.7560 96.9400 78.7560 C 82.0173 78.7560 69.9200 67.0841 69.9200 52.6860 C 69.9200 38.2879 82.0173 26.6160 96.9400 26.6160 C 111.8627 26.6160 123.9600 38.2879 123.9600 52.6860 Z M 107.6300 52.7100 C 107.6300 58.7962 102.8618 63.7300 96.9800 63.7300 C 91.0982 63.7300 86.3300 58.7962 86.3300 52.7100 C 86.3300 46.6238 91.0982 41.6900 96.9800 41.6900 C 102.8618 41.6900 107.6300 46.6238 107.6300 52.7100 Z M 152.9221 77.9582 C 152.0839 78.1313 151.2422 78.2717 150.3980 78.3811 C 149.5539 78.4904 148.7073 78.5687 147.8595 78.6176 C 147.0117 78.6664 146.1625 78.6859 145.3133 78.6775 C 144.4640 78.6691 143.6146 78.6329 142.7662 78.5705 C 141.9178 78.5081 141.0704 78.4195 140.2251 78.3063 C 139.3798 78.1932 138.5366 78.0554 137.6967 77.8948 C 136.8568 77.7341 136.0201 77.5506 135.1898 77.3435 C 134.3595 77.1364 133.5357 76.9058 132.7217 76.6507 C 131.9077 76.3957 131.1035 76.1163 130.3124 75.8118 C 129.5213 75.5073 128.7421 75.1846 127.9848 74.8056 C 127.2276 74.4266 126.4812 73.9880 125.7966 73.4435 C 125.1120 72.8991 124.5202 72.2502 124.2473 71.4599 C 123.9745 70.6695 124.0497 69.7658 124.4557 69.0058 C 124.8617 68.2459 125.4276 67.5704 125.9695 66.9248 C 126.5115 66.2793 127.1190 65.6652 127.6995 65.0421 C 128.2799 64.4189 128.8019 63.7762 129.3609 63.0938 C 129.9198 62.4114 130.6792 61.9041 131.4985 61.9999 C 132.3177 62.0957 133.0650 62.6445 133.8296 63.0522 C 134.5942 63.4599 135.3610 63.8351 136.1355 64.1801 C 136.9100 64.5252 137.6922 64.8400 138.4876 65.1272 C 139.2830 65.4143 140.0918 65.6740 140.9189 65.9074 C 141.7460 66.1409 142.5899 66.3449 143.4372 66.4826 C 144.2846 66.6202 145.1355 66.6917 145.9767 66.6600 C 146.8180 66.6284 147.6505 66.4937 148.4581 66.2195 C 149.2656 65.9452 150.0460 65.5313 150.7015 64.9485 C 151.3569 64.3656 151.8066 63.5738 151.7263 62.7531 C 151.6461 61.9324 151.0267 61.1954 150.3718 60.6196 C 149.7169 60.0437 148.9920 59.6090 148.2234 59.2673 C 147.4548 58.9255 146.6424 58.6767 145.8124 58.4726 C 144.9823 58.2686 144.1355 58.1079 143.2949 57.9468 C 142.4543 57.7857 141.6166 57.6284 140.7840 57.4580 C 139.9513 57.2877 139.1237 57.1044 138.3033 56.8913 C 137.4830 56.6782 136.6698 56.4353 135.8659 56.1459 C 135.0621 55.8565 134.2675 55.5204 133.4991 55.1343 C 132.7307 54.7482 131.9885 54.3120 131.2895 53.8225 C 130.5905 53.3330 129.9347 52.7900 129.3389 52.1905 C 128.7431 51.5910 128.2062 50.9360 127.7317 50.2365 C 127.2572 49.5370 126.8451 48.7929 126.4989 48.0150 C 126.1527 47.2371 125.8724 46.4255 125.6615 45.5910 C 125.4506 44.7565 125.3091 43.8986 125.2413 43.0362 C 125.1734 42.1737 125.1793 41.3067 125.2631 40.4538 C 125.3470 39.6009 125.5089 38.7622 125.7530 37.9564 C 125.9972 37.1505 126.3234 36.3773 126.7197 35.6400 C 127.1159 34.9027 127.5824 34.2015 128.1071 33.5397 C 128.6318 32.8779 129.2149 32.2556 129.8444 31.6763 C 130.4740 31.0969 131.1501 30.5604 131.8609 30.0704 C 132.5716 29.5803 133.3171 29.1366 134.0854 28.7428 C 134.8538 28.3490 135.6448 28.0053 136.4473 27.7143 C 137.2499 27.4234 138.0651 27.1840 138.8899 26.9901 C 139.7146 26.7961 140.5488 26.6477 141.3894 26.5385 C 142.2301 26.4294 143.0771 26.3596 143.9273 26.3231 C 144.7776 26.2865 145.6312 26.2832 146.4848 26.3069 C 147.3385 26.3307 148.1923 26.3816 149.0431 26.4534 C 149.8940 26.5253 150.7417 26.6179 151.5836 26.7258 C 152.4254 26.8337 153.2619 26.9579 154.0954 27.1040 C 154.9289 27.2501 155.7595 27.4180 156.5897 27.6132 C 157.4199 27.8085 158.2496 28.0310 159.0813 28.2863 C 159.9130 28.5415 160.7535 28.8255 161.5352 29.1856 C 162.3169 29.5456 163.0389 29.9823 163.6307 30.5447 C 164.2224 31.1071 164.6976 31.8129 164.9401 32.6522 C 165.1826 33.4914 165.0336 34.3626 164.5825 35.1167 C 164.1315 35.8709 163.5931 36.5671 163.0718 37.2365 C 162.5504 37.9058 162.0196 38.5457 161.4900 39.1825 C 160.9604 39.8194 160.4079 40.5874 159.7386 41.1768 C 159.0693 41.7661 158.3048 41.6427 157.5194 41.2432 C 156.7340 40.8438 155.9425 40.3414 155.1637 39.9748 C 154.3848 39.6082 153.6094 39.3090 152.8217 39.0634 C 152.0341 38.8178 151.2343 38.6258 150.4067 38.4736 C 149.5792 38.3214 148.7168 38.2017 147.8297 38.1271 C 146.9425 38.0525 146.0418 38.0348 145.1899 38.1412 C 144.3379 38.2475 143.5347 38.4778 142.8425 38.8992 C 142.1503 39.3206 141.5172 39.9770 141.1915 40.7776 C 140.8659 41.5782 141.1592 42.3938 141.7955 43.0096 C 142.4318 43.6254 143.1889 44.0830 143.9843 44.4467 C 144.7797 44.8105 145.6057 45.0845 146.4196 45.3187 C 147.2335 45.5529 148.0461 45.7425 148.8607 45.9173 C 149.6753 46.0922 150.4918 46.2524 151.3133 46.4277 C 152.1349 46.6031 152.9636 46.7970 153.7944 47.0256 C 154.6252 47.2543 155.4562 47.5145 156.2753 47.8103 C 157.0944 48.1062 157.9015 48.4375 158.6843 48.8084 C 159.4672 49.1793 160.2258 49.5896 160.9480 50.0434 C 161.6702 50.4972 162.3559 50.9944 162.9928 51.5389 C 163.6298 52.0835 164.2181 52.6754 164.7453 53.3186 C 165.2726 53.9618 165.7378 54.6587 166.1330 55.4042 C 166.5282 56.1497 166.8550 56.9410 167.1118 57.7603 C 167.3687 58.5797 167.5556 59.4271 167.6711 60.2851 C 167.7866 61.1431 167.8305 62.0114 167.8019 62.8732 C 167.7733 63.7351 167.6725 64.5913 167.5007 65.4291 C 167.3289 66.2670 167.0861 67.0866 166.7734 67.8752 C 166.4606 68.6639 166.0772 69.4210 165.6269 70.1360 C 165.1765 70.8509 164.6607 71.5249 164.0914 72.1533 C 163.5221 72.7816 162.8993 73.3645 162.2347 73.8972 C 161.5702 74.4299 160.8640 74.9121 160.1278 75.3404 C 159.3916 75.7688 158.6250 76.1447 157.8368 76.4749 C 157.0487 76.8050 156.2391 77.0893 155.4170 77.3343 C 154.5949 77.5794 153.7602 77.7851 152.9221 77.9582 Z M 171 27.73 L 187 28.15 L 187.24 77 L 186 77.71 L 171 77.64 L 170.27 77 L 170.28 29 Z M 188.1800 12.6000 C 188.1800 18.0290 183.7790 22.4300 178.3500 22.4300 C 172.9210 22.4300 168.5200 18.0290 168.5200 12.6000 C 168.5200 7.1710 172.9210 2.7700 178.3500 2.7700 C 183.7790 2.7700 188.1800 7.1710 188.1800 12.6000 Z M 252 77.50 L 231 77.60 L 217 59.00 L 210.74 65.00 L 210.86 77.00 L 210 77.76 L 194 77.68 L 193.02 77.00 L 193.18 2.00 L 210.62 2.00 L 211 45.26 L 229 27.81 L 251.01 28.00 L 230 47.60 L 229.60 49.00 L 252.28 77.00 Z M 253.70 27.80 L 257.80 27.80 L 257.80 28.55 L 256.15 28.55 L 256.15 32.10 L 255.35 32.10 L 255.35 28.55 L 253.70 28.55 Z M 259.00 32.10 L 259.00 27.80 L 259.85 27.80 L 261.70 30.35 L 263.55 27.80 L 264.40 27.80 L 264.40 32.10 L 263.58 32.10 L 263.58 29.05 L 261.70 31.55 L 259.82 29.05 L 259.82 32.10 Z" fill="#081B28" fill-rule="evenodd" clip-rule="evenodd"/><path d="M 42 77.40 L 30.62 57 L 50.80 25 L 67 1.52 L 92 1.50 L 92.25 3 L 43 77.12 L 42 77.40 Z" fill="#AB4928"/></svg>